<?xml version="1.0" encoding="utf-8"?>
<!-- Generator: Adobe Illustrator 23.0.3, SVG Export Plug-In . SVG Version: 6.00 Build 0)  -->
<svg version="1.1" id="Layer_1" xmlns="http://www.w3.org/2000/svg" xmlns:xlink="http://www.w3.org/1999/xlink" x="0px" y="0px"
	 viewBox="0 0 858.8 200.8" style="enable-background:new 0 0 858.8 200.8;" xml:space="preserve">
<style type="text/css">
	.st0{fill:#FFFFFF;}
</style>
<g>
	<path class="st0" d="M226.8,19.1h54.6v18.1H263v51.3h-18.2V37.2h-18V19.1z"/>
	<path class="st0" d="M312.1,19.1v24.7h22V19.1h18.2v69.3h-18.2V62h-22v26.4H294V19.1H312.1z"/>
	<path class="st0" d="M399.4,19.1c19.1,0,34.6,15.6,34.6,34.7s-15.5,34.5-34.6,34.5c-19.1,0-34.5-15.4-34.5-34.5
		S380.3,19.1,399.4,19.1z M399.4,37.2c-9,0-16.4,7.4-16.4,16.5c0,9,7.4,16.5,16.4,16.5c9.1,0,16.5-7.5,16.5-16.5
		C415.9,44.6,408.6,37.2,399.4,37.2z"/>
	<path class="st0" d="M486.9,88.4L476.1,70h-11.3v18.4h-18.2V19.1h29.2c14,0,25.5,11.5,25.5,25.5c0,7.4-3.2,14-8.2,18.7l14.7,25.1
		H486.9z M464.9,54.3h11.3c5.5,0,10-4.3,10-9.9c0-5.5-4.4-10-10-10h-11.3V54.3z"/>
	<path class="st0" d="M516.8,88.4V19.1h30.6c11.1,0,20.5,9.5,20.5,20.6c0,4.7-1.8,9-4.4,12.5c4.7,3.8,7.8,9.6,7.8,15.9
		c0,11-9.3,20.3-20.3,20.3H516.8z M543.7,46.2c3.3,0,6-2.7,6-6c0-3.3-2.7-6-6-6H535v12H543.7z M547.2,73.4c3.3,0,6-2.7,6-6
		c0-3.3-2.9-6-6-6H535v12H547.2z"/>
	<path class="st0" d="M582.2,19.1h18.2v51h24.9v18.3h-43.1V19.1z"/>
	<path class="st0" d="M668.7,19.1c19.1,0,34.6,15.6,34.6,34.7s-15.5,34.5-34.6,34.5c-19.1,0-34.5-15.4-34.5-34.5
		S649.6,19.1,668.7,19.1z M668.7,37.2c-9,0-16.4,7.4-16.4,16.5c0,9,7.4,16.5,16.4,16.5c9.1,0,16.5-7.5,16.5-16.5
		C685.2,44.6,677.8,37.2,668.7,37.2z"/>
	<path class="st0" d="M759.2,42c-2.9-2.9-6.9-4.5-11.6-4.5c-9.4,0-16.3,6.8-16.3,16.3S738.1,70,747.5,70c4.7,0,8.8-1.7,11.6-4.6
		l12.9,12.7c-6.3,6.3-15,10.3-24.6,10.3c-19.1,0-34.6-15.5-34.6-34.6s15.5-34.6,34.6-34.6c9.5,0,18.1,3.8,24.4,10.1L759.2,42z"/>
	<path class="st0" d="M852.9,19.1l-31.6,31.7l37.5,37.6h-25.7l-24.7-24.6l-4.3,4.4v20.1H786V19.1h18.2v23.4l23.3-23.4H852.9z"/>
	<path class="st0" d="M229.6,180.4v-65.5h39.8v8.4h-30.8v21.1h27.9v8.5h-27.9v27.5H229.6z"/>
	<path class="st0" d="M279.1,158.1v-43.1h9v42.8c0,10,5.4,15.6,14.6,15.6c9.2,0,14.5-5.6,14.5-15.6v-42.8h9v43.1
		c0,15.4-10.3,23.7-23.5,23.7S279.1,173.5,279.1,158.1z"/>
	<path class="st0" d="M386.3,180.4L350.9,127v53.4h-9v-65.5H354l32.7,50.2v-50.2h9.1v65.5H386.3z"/>
	<path class="st0" d="M412.3,180.4v-65.5h22.9c16.6,0,31.1,11.4,31.1,32.9c0,21.4-14.7,32.6-31.3,32.6H412.3z M434.8,172.4
		c12.1,0,22.3-8.1,22.3-24.6c0-16.5-10-24.8-22.1-24.8h-13.6v49.4H434.8z"/>
	<path class="st0" d="M497.8,153.6H488v26.8h-9.1v-65.5h24.7c12.4,0,20,8.7,20,19.5c0,9.4-6,16.7-15.9,18.6l15.6,27.4h-10.5
		L497.8,153.6z M501.8,145.5c7.4,0,12.4-4.3,12.4-11.1c0-6.9-5-11.4-12.4-11.4H488v22.4H501.8z"/>
	<path class="st0" d="M573.8,162.1h-29l-6.9,18.3h-9.7l26-65.5h10.4l26,65.5h-9.8L573.8,162.1z M548,153.7h22.5l-11.4-29.4
		L548,153.7z"/>
	<path class="st0" d="M599.9,180.4v-65.5h9.2v65.5H599.9z"/>
	<path class="st0" d="M659.4,132.7c-0.7-4.7-4.7-11.2-13.9-11.2c-7.4,0-12.7,4.8-12.7,10.9c0,4.7,2.9,8.3,8.4,9.5l9.8,2.1
		c10.9,2.4,17,9.2,17,18.4c0,10.2-8.7,19.4-22.6,19.4c-15.8,0-23.3-10.2-24.5-19.5l8.7-2.8c0.6,7.3,5.8,14,15.7,14
		c9,0,13.5-4.7,13.5-10.4c0-4.7-3.2-8.8-9.8-10.2l-9.3-2c-9.3-2-16-8.1-16-17.9c0-10.3,9.5-19.5,21.6-19.5
		c14.8,0,20.7,9.1,22.2,16.3L659.4,132.7z"/>
	<path class="st0" d="M680.5,180.4v-65.5h9.2v65.5H680.5z"/>
	<path class="st0" d="M750.8,180.4L715.4,127v53.4h-9v-65.5h12.1l32.7,50.2v-50.2h9.1v65.5H750.8z"/>
	<path class="st0" d="M826.2,180.4l-0.8-9.2c-2.9,5.2-10,10.6-21,10.6c-16.4,0-31.8-12-31.8-34.2s16.3-34.1,32.4-34.1
		c14.2,0,25.2,7.9,29,19.8l-8.2,3.5c-3-9.4-10.6-15-20.8-15c-11.7,0-23.2,8.4-23.2,25.8c0,17.4,11.1,25.9,22.8,25.9
		c14.6,0,19.9-10.3,20.2-17.1h-22.7v-8.1h31.3v32H826.2z"/>
</g>
<g>
	<g>
		<path class="st0" d="M140,19.9C127.2,7.1,110.1,0,91.9,0S56.7,7.1,43.9,19.9C31,32.8,24,49.8,24,68c0,18.2,7.1,35.2,19.9,48.1
			l29.5,29.5l7.2-7.2l7.2-7.2l-29.5-29.5c-9-9-14-21-14-33.7c0-12.7,5-24.7,14-33.7c9-9,21-14,33.7-14s24.7,5,33.7,14
			c9,9,14,21,14,33.7c0,7.5-1.8,14.8-5,21.4c3.4,2.4,6.6,5.1,9.6,8.1l5.8,5.8c6.4-10.5,9.9-22.7,9.9-35.3
			C159.9,49.8,152.9,32.8,140,19.9z"/>
	</g>
	<g>
		<path class="st0" d="M180.9,142.6L140,101.7c-13.3-13.3-30.7-19.9-48.1-19.9c-12,0-24,3.1-34.6,9.4c1.5,2.2,3.2,4.3,5.1,6.2
			l9.2,9.2c6.4-3,13.4-4.5,20.4-4.5c12.2,0,24.4,4.7,33.7,14l33.7,33.7l-26.6,26.6L110.5,154l-7.2,7.2l-7.2,7.2l29.5,29.5
			c1.9,1.9,4.5,3,7.2,3s5.3-1.1,7.2-3l40.9-40.9c1.9-1.9,3-4.5,3-7.2S182.8,144.5,180.9,142.6z"/>
	</g>
	<g>
		<path class="st0" d="M121.5,120.3c-2.4-2.4-5.2-4.5-8.1-6.3l-28.6,28.6v0L51,176.4l-26.6-26.6l22.3-22.3l-7.2-7.2
			c-2.4-2.4-4.6-5-6.7-7.7l-30,30c-4,4-4,10.4,0,14.3l40.9,40.9c1.9,1.9,4.5,3,7.2,3s5.3-1.1,7.2-3L99.1,157l0,0l29.5-29.5
			L121.5,120.3z"/>
	</g>
</g>
</svg>
